<svg xmlns="http://www.w3.org/2000/svg" width="512" height="512" viewBox="0 0 512 512" fill="none">
  <rect width="512" height="512" rx="128" fill="#3B82F6"/>
  <path d="M256 128C202.96 128 160 170.96 160 224C160 277.04 202.96 320 256 320C309.04 320 352 277.04 352 224C352 170.96 309.04 128 256 128ZM256 288C220.69 288 192 259.31 192 224C192 188.69 220.69 160 256 160C291.31 160 320 188.69 320 224C320 259.31 291.31 288 256 288Z" fill="white"/>
  <path d="M224 192V256L288 224L224 192Z" fill="white"/>
</svg>